<?xml version="1.0" standalone="no"?><!DOCTYPE svg PUBLIC "-//W3C//DTD SVG 1.1//EN" "http://www.w3.org/Graphics/SVG/1.1/DTD/svg11.dtd"><svg t="1648523537131" class="icon" viewBox="0 0 1024 1024" version="1.1" xmlns="http://www.w3.org/2000/svg" p-id="7313" xmlns:xlink="http://www.w3.org/1999/xlink" width="200" height="200"><defs><style type="text/css"></style></defs><path d="M111.081739 335.993047v357.354193l134.842243-178.454585L111.081739 335.993047zM111.081739 431.673186l63.193394 82.774445L111.081739 596.33203V431.673186z m0 0" fill="#EBE7E8" p-id="7314"></path><path d="M912.124764 73.873968v293.715776" fill="#CFD8D1" p-id="7315"></path><path d="M880.973091 423.662755c-1.780096 0 0-7.565406 3.115167-15.130812 36.046936-84.109518-15.130813-101.910474-16.910908-196.700565-0.890048-43.167319 23.141243-100.130378 45.392438-137.95741V71.203824c0-9.790526-2.22512-19.581052-6.230335-28.036505-47.617558 49.842677-72.093872 89.894828-71.203824 145.522816 0.890048 81.884398-7.120382 159.318557-44.057367 210.496306-27.146458 36.936984-76.099087 77.879183-84.109517 82.774446-17.800956 10.23555-21.806171 10.23555-24.031291 7.565406 0-2.670143 4.895263-8.900478 15.130813-17.800956 20.916123-20.4711 36.936984-61.413299 33.821816-98.350283-3.115167-52.512821-5.785311-111.255976 8.900478-148.192959 19.136028-47.172534 60.078227-93.009996 98.795307-125.051717 17.355932-13.795741 48.062581-47.172534 61.858322-64.97349-2.670143-4.005215-5.340287-7.565406-8.900478-11.125597-2.670143 2.22512-5.340287 4.450239-8.455454 5.78531-23.141243 12.905693-108.140808 67.643633-141.962625 114.816167-36.936984 49.842677-65.863538 140.182529-68.088657 185.129944 0 12.905693-4.005215 42.277271-8.900478 56.073012-3.115167 6.230335-5.785311 14.240765-7.120383 12.905693-0.890048-1.335072-0.890048-7.565406-0.890047-15.130813 1.780096-11.570621 0-24.031291-0.890048-39.607127-4.895263-34.266841-3.115167-101.020426 28.036506-160.653629 12.015645-21.806171 19.136028-32.041721 28.926553-39.607127 9.790526-7.565406 24.031291-25.366362 29.816602-35.601913 8.01043-10.23555 27.146458-32.041721 40.942199-43.612342 16.910908-14.240765 60.078227-30.706649 72.98392-32.041721 13.350717-3.560191 23.141243-8.01043 29.816601-13.350717-10.680574-8.900478-25.366362-14.685789-41.387222-14.685789h-47.172534c-15.130813 6.230335-29.371578 15.130813-41.387223 26.25641-20.916123 17.800956-49.842677 57.408083-63.193394 81.884398-8.01043 14.240765-32.931769 45.837462-41.832247 56.073012-23.141243 20.4711-84.109518 54.73794-98.795307 61.413299-11.125598 4.005215-23.141243 4.005215-23.141242 1.335071 0-4.005215 3.115167-7.565406 12.905693-10.235549 15.130813-8.900478 29.816601-24.031291 35.156888-38.272056 9.790526-21.806171 20.916123-43.612342 40.052151-70.313777s41.832247-49.842677 53.847892-58.743155c12.015645-8.900478 36.936984-33.376793 48.062582-48.507605l0.445024-0.445024H294.431587v81.439374L232.573265 4.450239H177.835325c-14.685789 0-28.036506 4.895263-39.162104 12.905693 7.120382-4.450239 14.685789-8.455454 22.696219-10.680573l133.062147 174.894393v165.993916L111.081739 105.470665v98.795306l183.349848 241.647979v135.287267L111.081739 822.849196v99.685354L294.431587 680.886571v164.658844l-130.392003 172.22425c4.450239 0.890048 8.900478 1.335072 13.795741 1.335072h58.298131l58.298131-76.989135V1019.104737H845.371179c36.936984 0 66.753585-30.261625 66.753585-66.753585V368.034767c-10.23555 24.031291-18.24598 41.387223-20.4711 45.392439-7.120382 10.23555-8.900478 12.905693-10.680573 10.235549z" fill="#EBE7E8" p-id="7316"></path><path d="M671.811856 53.402868c-12.015645 8.900478-35.156888 32.041721-53.847892 58.743155-19.136028 26.701434-29.816601 48.507605-40.052151 70.313777-4.895263 14.240765-20.026076 29.371578-35.156888 38.272056-9.790526 2.670143-12.905693 6.230335-12.905693 10.235549 0 2.670143 12.015645 2.670143 23.141242-1.335071 15.130813-6.230335 76.099087-40.942199 98.795307-61.413299 8.900478-10.23555 33.821817-42.277271 41.832247-56.073012 12.905693-24.031291 41.832247-63.638418 63.193394-81.884398 12.015645-11.125598 26.25641-19.581052 41.387223-26.25641h-77.879183l-0.445024 0.445024c-11.125598 16.02086-36.046936 40.052151-48.062582 48.952629zM784.847928 64.97349c-13.795741 11.570621-32.931769 33.376793-40.942199 43.612342-5.785311 10.23555-20.026076 28.036506-29.816602 35.601912-9.790526 7.565406-16.910908 17.800956-28.926553 39.607128-31.151673 60.078227-32.931769 126.386788-28.036506 160.653629 0.890048 15.130813 3.115167 28.036506 0.890047 39.607127 0 7.565406 0 14.240765 0.890048 15.130813 0.890048 1.335072 4.005215-6.230335 7.120383-12.905693 4.895263-14.240765 8.900478-43.612342 8.900478-56.073012 1.780096-44.50239 31.151673-135.287266 68.088657-185.129944 33.821817-47.172534 118.821382-101.910474 141.962625-114.816167 2.670143-1.335072 5.340287-3.560191 8.455454-5.78531-1.780096-1.780096-3.560191-3.560191-5.340287-4.895263-6.675359 5.340287-16.465884 10.23555-29.816601 13.350717-13.350717 1.335072-56.518036 17.800956-73.428944 32.041721zM866.732326 211.831378c1.780096 94.345067 52.957844 112.146023 16.910908 196.700565-3.115167 7.565406-4.895263 15.130813-3.115167 15.130812 1.780096 2.670143 4.005215 0 11.125597-10.235549 1.780096-4.005215 10.23555-21.806171 20.4711-45.392439v-293.715775c-22.251195 37.382008-46.282486 93.900043-45.392438 137.512386z" fill="#CFD8D1" p-id="7317"></path><path d="M839.585868 100.575402c-39.162103 32.041721-80.104302 77.879183-98.795307 125.051717-15.130813 36.936984-12.015645 95.680139-8.900478 148.192959 3.115167 36.936984-12.905693 77.879183-33.821816 98.350283-9.790526 8.900478-15.130813 15.130813-15.130813 17.800956 1.780096 2.670143 5.785311 2.670143 24.031291-7.565407 8.01043-4.895263 56.96306-45.837462 84.109517-82.774445 36.936984-51.177749 44.947414-129.056932 44.057367-210.496306-0.890048-55.627988 23.586267-95.680139 71.203824-145.522817-1.335072-2.670143-2.670143-4.895263-4.005215-7.565406-14.685789 17.355932-45.392438 50.732725-62.74837 64.528466z" fill="#CFD8D1" p-id="7318"></path><path d="M232.573265 1024h61.858322V1019.104737H236.133456zM236.133456 1019.104737h58.298131v-76.989135zM111.081739 371.149935V204.265971M111.081739 822.849196v-165.993916M294.431587 445.91395L111.081739 204.265971v166.883964l108.140808 142.407649L111.081739 656.85528v165.993916l183.349848-241.647979zM294.431587 4.450239H232.573265h61.858322zM294.431587 4.450239H232.573265l61.858322 81.439374zM111.081739 105.470665V71.203824c0-22.251195 10.680574-41.832247 27.591482-53.847892" fill="#639B77" p-id="7319"></path><path d="M294.431587 181.569752L161.36944 6.675359c-8.01043 2.670143-15.575837 6.230335-22.696219 10.680573C121.762313 29.371578 111.081739 48.952629 111.081739 71.203824v34.266841l183.349848 242.093003V181.569752zM161.36944 1021.329857l2.670144-3.560192C133.777958 1011.539331 111.081739 984.392873 111.081739 952.351152v-29.816602" fill="#639B77" p-id="7320"></path><path d="M294.431587 680.886571L111.081739 922.53455v29.816602c0 32.041721 22.696219 59.188179 52.957845 65.418513L294.431587 845.545415v-164.658844zM111.081739 561.175141v-94.790091M111.081739 466.38505v94.790091l36.49196-47.617557z" fill="#639B77" p-id="7321"></path></svg>