<?xml version="1.0" encoding="utf-8"?>
<!-- Generator: Adobe Illustrator 24.0.1, SVG Export Plug-In . SVG Version: 6.00 Build 0)  -->
<svg version="1.1" id="图层_1" xmlns="http://www.w3.org/2000/svg" xmlns:xlink="http://www.w3.org/1999/xlink" x="0px" y="0px"
	 viewBox="0 0 200 200" style="enable-background:new 0 0 200 200;" xml:space="preserve">
<style type="text/css">
	.st0{fill:#0FDCD9;}
	.st1{fill:#0ED0CD;}
	.st2{fill:#0DC0BD;}
	.st3{fill:#0CABA8;}
	.st4{fill:#FFFFFF;}
	.st5{fill:#D2ECFF;}
</style>
<path class="st0" d="M40,0h120c26.7,0,40,13.3,40,40v120c0,26.7-13.3,40-40,40H40c-26.7,0-40-13.3-40-40V40C0,13.3,13.3,0,40,0z"/>
<path class="st1" d="M160,0h-55.7C55.8,11.8,16.6,47.4,0,94.5V160c0,22.1,17.9,40,40,40h120c22.1,0,40-17.9,40-40V40
	C200,17.9,182.1,0,160,0z"/>
<path class="st2" d="M160,0h-0.8C79.6,17.2,29,95.7,46.3,175.3c1.8,8.4,4.4,16.7,7.6,24.7H160c22.1,0,40-17.9,40-40V40
	C200,17.9,182.1,0,160,0z"/>
<path class="st3" d="M97.1,140.8c0,20.4,4.2,40.5,12.3,59.2H160c22.1,0,40-17.9,40-40V40c0-13.2-6.5-25.5-17.4-33
	C130.5,31.2,97.1,83.4,97.1,140.8z"/>
<path class="st4" d="M159.9,105.2c0-32.8-38.5-73.4-51.1-85.7c-2.1-2.1-5.6-2.1-7.7,0C88.5,31.8,50,72.4,50,105.2
	c0,30.4,24.6,55.1,54.9,55.1S159.9,135.7,159.9,105.2z"/>
<path class="st5" d="M149.3,110.3c0,35.1-19.9,49.5-44.4,49.5s-44.4-14.4-44.4-49.5s44.4-91.8,44.4-91.8S149.3,75.1,149.3,110.3z"/>
<path class="st4" d="M107.5,90.5c0,13,10.5,23.5,23.4,23.5c13,0,23.5-10.5,23.5-23.4c0,0,0,0,0,0c0-13-10.5-23.5-23.4-23.5
	C118,67,107.5,77.5,107.5,90.5C107.5,90.5,107.5,90.5,107.5,90.5z"/>
<path class="st4" d="M6.8,122.1c0,9.1,7.4,16.5,16.5,16.5c9.1,0,16.5-7.4,16.5-16.5c0,0,0,0,0,0c0-9.1-7.4-16.5-16.5-16.5
	C14.2,105.6,6.8,113,6.8,122.1C6.8,122.1,6.8,122.1,6.8,122.1z"/>
<path class="st4" d="M162.5,142.8c0,5.3,4.3,9.6,9.6,9.6s9.6-4.3,9.6-9.6c0,0,0,0,0,0c0-5.3-4.3-9.6-9.6-9.6
	C166.8,133.2,162.5,137.5,162.5,142.8C162.5,142.8,162.5,142.8,162.5,142.8z"/>
<path class="st4" d="M37.5,26.3c0,6.9,5.6,12.5,12.5,12.5c6.9,0,12.5-5.6,12.5-12.5c0,0,0,0,0,0c0-6.9-5.6-12.5-12.5-12.5
	C43.1,13.8,37.5,19.4,37.5,26.3C37.5,26.3,37.5,26.3,37.5,26.3z"/>
<path class="st4" d="M50,40.8c-8,0-14.5-6.5-14.5-14.5S42,11.8,50,11.8s14.5,6.5,14.5,14.5S58,40.8,50,40.8z M50,15.8
	c-5.8,0-10.5,4.7-10.5,10.5S44.2,36.7,50,36.7c5.8,0,10.5-4.7,10.5-10.5S55.8,15.8,50,15.8z"/>
</svg>
