<svg viewBox="0 0 1024 1024" xmlns="http://www.w3.org/2000/svg" width="16" height="16"><path d="M870.48752136 183.19972649H542.24738462v-53.7731282c0-15.68382906-12.8831453-28.56697436-28.56697436-28.56697436s-28.56697436 12.8831453-28.56697436 28.56697436v53.7731282H156.87329915c-22.40547008 0-40.32984615 18.48451282-40.32984616 40.32984616v468.83446153c0 22.40547008 18.48451282 40.32984615 40.32984616 40.32984616h138.35377777L140.62933333 893.45312821c-11.20273505 11.20273505-10.64259829 29.12711111 0.56013675 40.32984615 5.60136752 5.04123077 12.32300854 7.84191453 19.60478633 7.84191453s14.56355556-3.36082051 20.72505983-8.40205128l175.32280342-182.6045812c5.04123077-5.04123077 7.28177777-11.20273505 7.84191452-17.92437607h301.91370941c0.56013675 6.16150428 2.80068376 12.32300854 7.84191453 17.36423932l175.32280342 182.60458119c5.60136752 6.16150428 13.44328205 8.96218803 20.72505982 8.96218804 6.72164103 0 14.0034188-2.80068376 19.60478633-8.40205128 11.20273505-10.64259829 11.76287179-29.12711111 0.56013675-40.32984615l-154.03760683-160.19911112h134.99295726c25.76629059 0 39.76970941-16.80410256 39.76970941-39.20957265V224.08970941c0-22.40547008-18.48451282-40.8899829-40.88998292-40.88998292z m-282.30892307 302.47384616l-114.82803419 66.09613676c-6.16150428 3.36082051-12.32300854 5.04123077-18.48451282 5.04123076-5.04123077 0-9.52232479-1.12027351-12.8831453-3.36082051-10.08246154-6.16150428-15.12369231-16.24396582-15.12369231-29.12711112V392.13073505c0-12.8831453 5.04123077-23.52574359 14.56355556-29.12711112 3.92095726-2.24054701 8.40205128-3.36082051 12.8831453-3.36082051 6.16150428 0 12.8831453 1.68041026 19.04464957 5.60136752l114.26789744 66.09613675c6.72164103 3.92095726 17.92437607 12.8831453 17.92437607 26.8865641s-10.64259829 23.52574359-17.36423932 27.44670086z"></path></svg>