<svg viewBox="0 0 1024 1024" xmlns="http://www.w3.org/2000/svg" width="150" height="150"><path d="M908.625 239.28l2.708 711.517a29.557 29.557 0 0 1-29.642 29.643H193.859a29.56 29.56 0 0 1-29.655-29.643V73.027a29.557 29.557 0 0 1 29.642-29.642l522.482-1.078L675.112 0H195.274a69.484 69.484 0 0 0-69.564 69.565v884.843A69.497 69.497 0 0 0 195.274 1024h684.962a69.51 69.51 0 0 0 69.591-69.592V281.6l-41.202-42.307z" fill="#D6473B" fill-opacity=".4"/><path d="M331.372 878.336l.283-.135c-.607.27-1.024.404-.27.135" fill="#EF6A63"/><path d="M766.033 849.96c-.135.122-.175-1.4-.175-1.751.188.835.323 1.59.175 1.751zm-2.56 8.53c-.31.174-.62.31-.943.498l-.122.013c-.35 0-.781.202-1.212.337h-.054c-1.253 0-2.695-.162-3.975 0 .189 0 2.883.566.903.189-.714-.189-1.442-.189-1.98-.35-1.631-.364-3.261-.903-4.717-1.267a51.294 51.294 0 0 1-2.277-.89c-5.659-2.694-10.994-5.847-16.33-9.229a103.559 103.559 0 0 1-7.41-5.066c-1.267-.903-2.331-1.792-3.611-2.708.188.175 1.805 1.442.364.364l-2.884-2.358a226.264 226.264 0 0 1-13.918-12.45c-4.042-3.88-7.869-7.99-11.655-12.153 2.372.135 4.756.215 7.141.404 3.234.175 6.683.526 9.944.714 1.617.189 3.234.35 5.052.54l.391.026a12.194 12.194 0 0 0-.58-.027c1.442.189 2.722.364 4.164.728a109.177 109.177 0 0 1 20.062 5.416 11.722 11.722 0 0 1 1.617.714c1.267.54 2.533 1.28 3.611 1.833 2.547 1.428 5.066 3.058 7.6 4.688l.43.364 1.011.89c1.078.916 1.994 1.818 2.883 2.721.917.903 1.82 1.98 2.722 2.897.35.539.903 1.078 1.267 1.617-.917-1.078-1.078-1.442-.189 0 .714 1.078 1.455 2.156 2.183 3.436.215.323.943 1.94 1.334 2.775.202.66.714 2.116.808 2.466.121.296.485 1.495.741 2.56v2.506c0 .512-.27 2.83-.215 3.328a37.726 37.726 0 0 0-.512 1.725 23.26 23.26 0 0 0-.485 1.643c-.108.081-.081.014-.23.162l-.943.943zM536.32 780.018a1023.946 1023.946 0 0 0-62.572 5.928c2.924-3.934 6.036-7.747 8.893-11.722 17.179-23.849 32.89-48.775 48.25-73.728 8.258-13.649 16.464-27.352 24.306-41.27 2.182 4.19 4.352 8.394 6.602 12.53a1398.622 1398.622 0 0 0 50.243 85.478 1115.08 1115.08 0 0 0 13.433 20.776c-29.776-.31-59.526.054-89.155 2.008zm-174.228 78.443c-1.428 1.078-2.884 2.345-4.325 3.423l-.728.539c1.267-1.078-.714.539-.714.539-2.722 1.994-5.43 3.988-8.327 5.982a106.918 106.918 0 0 1-8.663 5.39c-1.442.74-2.722 1.481-4.164 2.196l-2.169 1.077a7.316 7.316 0 0 1-1.199.54 11.426 11.426 0 0 1-1.334.565c-.728.162-1.442.526-2.17.687a47.586 47.586 0 0 1-5.052 1.47c-1.212.309-2.479.551-3.813.754-.593.013-2.479.134-3.045.134-1.469 0-3.099-.161-4.54-.161h-.27c-.31-.081-.62-.189-.984-.189a1.145 1.145 0 0 0-.215-.067 9.108 9.108 0 0 0-.39-.903c0-.526 0-1.051-.122-1.563 0-.755.323-2.897.296-3.126.297-1.253.553-2.506.97-3.746a5.2 5.2 0 0 1 .378-1.01c.04-.081.067-.081.175-.243.714-1.28 1.253-2.533 1.98-3.8.324-.511 2.102-3.017 1.671-2.573.23-.256.431-.498.485-.498.728-.903 1.63-1.82 2.533-2.695 1.078-1.105 2.183-2.021 3.26-2.91l.216-.216a80.128 80.128 0 0 1 10.443-6.306c1.36-.673 2.586-1.212 3.934-1.872l-.135.08c.728-.363 1.442-.539 2.17-.916a85.693 85.693 0 0 1 9.566-3.233c6.871-2.156 13.743-4.177 20.803-5.97 6.333-1.75 12.8-3.071 19.227-4.607-3.503 3.368-6.777 6.966-10.375 10.213-5.066 4.513-10.132 8.838-15.373 13.015zm193.927-282.866a207.805 207.805 0 0 1-4.514-20.952c-.108-.364-.094-.74-.108-1.132l.108.755c.175-.89-.364-2.695-.364-3.61a70.467 70.467 0 0 1-.539-8.84 258.439 258.439 0 0 1 0-16.99l.539-7.963c.189-1.266.189-2.708.364-3.988 0-.714.175-1.253.175-1.98l.067-.54c.89-5.12 1.765-10.24 3.005-15.185l2.156-7.585 1.091-3.234c.189-.7 1.644-4.123.943-2.304.35-.741.809-1.684.876-1.886.539-.89.903-1.792 1.442-2.695.673-1.374 1.522-2.6 2.33-3.84.324.62.674 1.186.984 1.805.054.135 0 .081.108.405.377 1.091.916 2.155 1.28 3.26.903 2.533 1.792 5.066 2.533 7.775a173.778 173.778 0 0 1 3.247 13.716c.162 1.078.418 2.048.607 3.099a90.031 90.031 0 0 1 .471 15.171c0 1.792-.175 3.436-.364 5.241 0 .728-.539 4.878-.161 2.52-.54 3.786-1.28 7.41-2.008 11.21-3.058 14.282-7.572 27.998-12.638 41.58l-.243.566c-.43-1.469-.997-2.897-1.387-4.38zm241.448 266.038c-4.689-30.895-35.786-50.607-63.973-56.751-16.263-3.625-32.89-4.339-49.53-5.242-5.9-.27-11.802-.35-17.704-.593-2.924-4.203-5.874-8.38-8.663-12.61a1247.865 1247.865 0 0 1-46.997-75.534c-12.88-22.259-25.492-44.693-36.5-67.948.647-1.334 1.348-2.641 1.98-3.988 13.92-29.993 26.57-62.168 29.454-95.232 1.28-14.282-.727-28.565-4.338-42.483-3.072-11.372-7.047-23.134-14.282-32.337-3.962-5.254-8.853-9.202-15.172-11.398-4.675-1.563-9.35-1.254-13.878-.108-2.452.108-4.85.646-7.087 2.115-19.698 13.353-27.648 38.467-31.259 61.063-4.338 27.836-3.247 55.511 4.15 82.957 3.598 13.366 8.489 26.328 13.959 39.1a692.911 692.911 0 0 1-17.03 31.206c-13.744 23.687-28.026 47.01-43.009 69.928a855.606 855.606 0 0 1-22.945 33.63c-3.989 5.43-7.963 11.036-11.938 16.263a51.51 51.51 0 0 1-2.897 3.8l-.539.728c1.078-1.267-.539.714-.539.714-2.156 2.883-4.527 5.793-6.683 8.502-1.522 1.859-3.193 3.584-4.73 5.416-28.738 5.08-57.222 11.372-85.099 19.699-15.724 4.715-31.084 10.846-43.735 21.504-12.464 10.482-20.777 26.03-21.504 42.307-.364 8.125 1.441 17.165 6.332 23.848 6.495 9.028 16.074 12.652 26.745 13.919 16.075 1.805 32.337-3.989 46.27-11.938 13.54-7.774 25.828-18.055 37.752-28.174a408.414 408.414 0 0 0 31.461-29.844c6.252-6.508 11.992-13.527 17.893-20.385 4.406-.741 8.772-1.671 13.205-2.385 3.422-.54 6.844-1.078 10.294-1.442 0 0 2.883-.364 1.253-.175-1.806.175 1.805-.189 2.169-.377 1.994-.162 3.975-.526 5.955-.714a917.154 917.154 0 0 1 22.42-2.52c49.947-4.999 100.258-5.928 150.555-4.554 4.986 6.535 10.12 12.935 15.536 19.2a253.17 253.17 0 0 0 29.83 29.44c11.372 9.404 23.849 18.81 37.403 24.926 15.185 6.885 33.065 10.51 48.06 1.118 15.36-9.593 20.077-27.648 17.368-44.651zm-465.812 36.58l.148-.067-.148.068" fill="#EF6A63"/><path d="M558.915 482.183l.027-.135c-.35.835-.606 1.374-.027.135m116.197-275.968a75.52 75.52 0 0 0 75.547 75.547h199.343L675.112 0v206.215z" fill="#EF6A63"/><path d="M532.345 481.091H109.972a96.485 96.485 0 0 1-96.498-96.498v-63.798a96.499 96.499 0 0 1 96.498-96.525h422.373a96.499 96.499 0 0 1 96.512 96.525v63.798a96.485 96.485 0 0 1-96.512 96.498" fill="#FA4E4E"/><path d="M417.213 274.877h125.979v35.436h-74.82v28.739h63.973v33.226h-63.973v67.436h-51.16V274.877zm-127.758 37.416v90.004h12.45c10.685 0 18.27-1.266 22.77-3.624 4.541-2.344 7.977-6.48 10.685-12.288 2.533-5.955 3.786-15.36 3.786-28.55 0-17.517-2.883-29.454-8.502-35.962-5.767-6.508-15.171-9.768-28.362-9.768l-12.827.188zm-50.97-37.43h75.721c15.01 0 26.92 1.994 36.137 6.144a58.974 58.974 0 0 1 22.77 17.368 73.701 73.701 0 0 1 13.03 26.368c2.694 10.119 3.974 20.79 3.974 32 0 17.718-1.994 31.259-5.955 41.014a67.584 67.584 0 0 1-16.64 24.414c-7.047 6.494-14.821 10.833-22.96 13.19-11.21 3.073-21.315 4.528-30.342 4.528h-75.736V274.863zm-116.036 70.333h12.477c9.768 0 16.815-1.617 20.79-5.066a16.573 16.573 0 0 0 5.955-13.177c0-5.228-1.806-9.594-5.255-13.205-3.422-3.624-9.917-5.416-19.496-5.416h-14.471v36.864zm-51.335-70.333h84.777c18.432 0 32.35 4.352 41.39 13.204 9.217 8.853 13.73 21.316 13.73 37.417 0 16.613-5.066 29.629-14.996 39.033-9.943 9.405-25.303 14.094-45.905 14.094H122.45v61.278H71.114V274.863z" fill="#FFF"/></svg>