<svg viewBox="0 0 1024 1024" xmlns="http://www.w3.org/2000/svg" width="150" height="150"><path d="M908.611 239.293l2.722 711.518a29.557 29.557 0 0 1-29.642 29.642H193.819a29.557 29.557 0 0 1-29.642-29.642V73.001a29.554 29.554 0 0 1 29.642-29.63l522.496-1.077L675.112 0H195.274a69.484 69.484 0 0 0-69.564 69.578v884.844a69.497 69.497 0 0 0 69.564 69.591h684.962a69.51 69.51 0 0 0 69.591-69.591V281.573l-41.216-42.294z" fill="#3491fa" fill-opacity=".4"/><path d="M675.126 206.201a75.507 75.507 0 0 0 75.533 75.547h199.343L675.126 0v206.201zM532.345 481.091H109.972a96.485 96.485 0 0 1-96.498-96.498v-63.798a96.485 96.485 0 0 1 96.498-96.512h422.373a96.485 96.485 0 0 1 96.499 96.512v63.798a96.485 96.485 0 0 1-96.499 96.498" fill="#3491fa"/><path d="M412.335 274.89h154.907v40.664H515.18V439.7h-50.958V315.554H412.16l.189-40.664zm-178.93 0h56.225l29.279 50.783 28.375-50.796h55.485l-51.335 79.885 56.199 85.127h-57.277l-32.539-52.952-32.539 52.952h-56.926l56.926-86.03-51.873-78.969zm-166.602 0h154.866v40.664h-52.035V439.7h-50.985V315.554H66.803V274.89z" fill="#FFF"/><path d="M770.722 690.014h-465.92a30.046 30.046 0 0 1-29.993-30.006v-5.591a30.046 30.046 0 0 1 29.993-30.02h465.92a30.046 30.046 0 0 1 30.006 30.02v5.591a30.046 30.046 0 0 1-30.006 30.006m-191.03 138.267H304.815a30.046 30.046 0 0 1-30.006-30.02v-5.59a30.046 30.046 0 0 1 30.006-30.007h274.877a30.046 30.046 0 0 1 30.006 30.006v5.592a30.046 30.046 0 0 1-30.006 30.02" fill="#3491fa"/></svg>