<svg viewBox="0 0 1024 1024" xmlns="http://www.w3.org/2000/svg" width="50" height="50"><path d="M512 4.096C231.424 4.096 4.096 231.424 4.096 512s227.328 508.416 508.416 508.416S1020.928 793.088 1020.928 512 792.576 4.096 512 4.096zm0 941.568C272.384 945.664 78.336 751.616 78.336 512S272.384 78.336 512 78.336 945.664 272.384 945.664 512 751.616 945.664 512 945.664z" fill="#ccc"/><path d="M463.36 728.064V295.936c0-26.624 21.504-48.64 48.64-48.64 26.624 0 48.64 21.504 48.64 48.64v432.64c0 26.624-21.504 48.64-48.64 48.64-26.624-.512-48.64-22.016-48.64-49.152z" fill="#ccc"/><path d="M295.936 463.36h432.64c26.624 0 48.64 21.504 48.64 48.64 0 26.624-21.504 48.64-48.64 48.64h-432.64c-26.624 0-48.64-21.504-48.64-48.64 0-26.624 21.504-48.64 48.64-48.64z" fill="#ccc"/></svg>