<svg viewBox="0 0 1024 1024" xmlns="http://www.w3.org/2000/svg" width="20" height="20"><path d="M824.889 682.667c-28.445 0-56.889 11.377-79.645 22.755l-45.51-45.51c22.755-34.134 39.822-73.956 39.822-119.468 0-62.577-28.445-119.466-73.956-153.6l22.756-45.51h22.755c79.645 0 142.222-62.578 142.222-142.223S790.756 56.89 711.111 56.89 568.89 119.467 568.89 199.11c0 51.2 28.444 91.022 62.578 119.467L614.4 358.4c-22.756-11.378-45.511-17.067-73.956-17.067-108.088 0-199.11 91.023-199.11 199.111 0 28.445 5.688 51.2 17.066 73.956l-39.822 17.067c-28.445-34.134-68.267-62.578-119.467-62.578-79.644 0-142.222 62.578-142.222 142.222s62.578 142.222 142.222 142.222 142.222-62.577 142.222-142.222v-22.755l45.511-22.756c34.134 45.511 91.023 73.956 153.6 73.956 45.512 0 85.334-17.067 119.467-39.823l45.511 45.511c-11.378 22.756-22.755 51.2-22.755 79.645 0 79.644 62.577 142.222 142.222 142.222S967.11 904.533 967.11 824.89 904.533 682.667 824.89 682.667zM711.11 113.777c45.511 0 85.333 39.823 85.333 85.334s-39.822 85.333-85.333 85.333-85.333-39.822-85.333-85.333 39.822-85.333 85.333-85.333zm-512 682.667c-45.511 0-85.333-39.822-85.333-85.333s39.822-85.333 85.333-85.333 85.333 39.822 85.333 85.333-39.822 85.333-85.333 85.333zm199.111-256c0-79.644 62.578-142.222 142.222-142.222S682.667 460.8 682.667 540.444s-62.578 142.223-142.223 142.223-142.222-62.578-142.222-142.223zM824.89 910.222c-45.511 0-85.333-39.822-85.333-85.333s39.822-85.333 85.333-85.333 85.333 39.822 85.333 85.333-39.822 85.333-85.333 85.333z" fill="#fff"/></svg>