<svg viewBox="0 0 1024 1024" xmlns="http://www.w3.org/2000/svg" width="20" height="20"><path d="M0 686.081a332.799 332.799 0 1 0 665.598 0 332.799 332.799 0 1 0-665.598 0z" fill="#DFDFF2"/><path d="M883.197 1024H243.2a141.056 141.056 0 0 1-140.8-140.8V140.803A141.056 141.056 0 0 1 243.2.003h516.35a89.088 89.088 0 0 1 63.233 25.6l189.695 189.695a38.4 38.4 0 0 1 11.52 27.904V883.2a141.056 141.056 0 0 1-140.8 140.8zM243.2 76.803a64 64 0 0 0-64 64V883.2a64 64 0 0 0 64 64h639.998a64 64 0 0 0 64-64V259.074l-179.2-179.2a12.8 12.8 0 0 0-8.447-3.071z" fill="#434260"/><path d="M209.407 409.602h53.76c63.744 0 100.096 35.072 100.096 102.4s-36.352 104.447-98.304 104.447h-55.552zm51.2 180.48c44.544 0 68.352-25.6 68.352-76.8s-24.064-76.8-68.352-76.8H241.92v153.6zm126.464-78.08c0-66.816 36.864-106.752 90.112-106.752s90.367 39.936 90.367 106.752-37.12 108.031-90.367 108.031-90.112-41.984-90.112-108.031zm146.943 0c0-48.64-22.528-78.336-56.831-78.336s-56.576 28.928-56.576 78.336 22.272 79.615 56.576 79.615 57.087-31.488 57.087-79.615zm60.416 0c0-67.584 41.216-108.032 93.44-108.032a79.872 79.872 0 0 1 58.88 25.6l-17.664 20.736a55.04 55.04 0 0 0-40.448-18.688c-35.84 0-60.672 29.952-60.672 78.592s23.04 79.36 59.648 79.36a60.416 60.416 0 0 0 45.824-22.017l17.408 20.48a81.92 81.92 0 0 1-64.512 29.952c-51.968 1.536-91.904-37.376-91.904-105.983zm228.096-3.328l-54.528-99.072h36.352l25.6 48.384c5.12 9.472 9.471 18.944 15.871 31.232h-1.024c5.376-12.288 9.216-21.76 14.08-31.232l25.6-48.384h34.304l-55.808 102.4 58.624 103.68h-35.84l-27.392-51.2-17.152-33.793c-5.888 12.544-11.007 23.296-16.127 33.792l-25.6 51.2h-36.352z" fill="#434260"/></svg>