<svg viewBox="0 0 1024 1024" xmlns="http://www.w3.org/2000/svg" width="20" height="20"><path d="M0 686.081a332.799 332.799 0 1 0 665.598 0 332.799 332.799 0 1 0-665.598 0z" fill="#FFDCEE"/><path d="M883.197 1024H243.2a141.056 141.056 0 0 1-140.8-140.8V140.803A141.056 141.056 0 0 1 243.2.003h516.35a89.088 89.088 0 0 1 63.233 25.6l189.695 189.695a38.4 38.4 0 0 1 11.52 27.904V883.2a141.056 141.056 0 0 1-140.8 140.8zM243.2 76.803a64 64 0 0 0-64 64V883.2a64 64 0 0 0 64 64h639.998a64 64 0 0 0 64-64V259.074l-179.2-179.2a12.8 12.8 0 0 0-8.447-3.071z" fill="#434260"/><path d="M299.775 399.106h68.352c51.2 0 86.272 17.152 86.272 68.096s-35.84 72.191-84.992 72.191h-34.048v85.76h-35.584zm66.304 112.896c36.352 0 53.504-13.824 53.504-43.52s-18.688-39.68-54.528-39.68h-29.696v83.2zM488.19 399.106h58.623c69.376 0 109.056 38.4 109.056 112.128s-39.68 113.92-107.264 113.92h-60.415zm56.32 196.863c48.383 0 74.495-28.672 74.495-84.735s-25.6-83.2-74.496-83.2h-20.48v167.935zm148.223-196.863h133.888v29.696h-98.304v69.12h83.456v29.695h-83.456v97.28h-35.584z" fill="#434260"/></svg>