<svg viewBox="0 0 1024 1024" xmlns="http://www.w3.org/2000/svg" width="20" height="20"><path d="M901.632 926.72a48.947 48.947 0 0 1-48.64 48.64H170.496a47.565 47.565 0 0 1-34.304-14.336 48.486 48.486 0 0 1-14.336-34.304V48.64a47.565 47.565 0 0 1 14.336-34.303A47.565 47.565 0 0 1 170.496 0h418.816a49.664 49.664 0 0 1 34.816 14.336l263.68 263.68a48.742 48.742 0 0 1 14.336 34.816V926.72z" fill="#EBECF0"/><path d="M901.632 926.72v48.64a47.565 47.565 0 0 1-14.336 34.304A48.486 48.486 0 0 1 852.992 1024H170.496a48.64 48.64 0 0 1-48.64-48.64v-48.64a48.947 48.947 0 0 0 48.64 48.64h682.496a48.64 48.64 0 0 0 48.64-48.64z" fill="#C1C7D0"/><path d="M24.064 536.576h975.36v243.712a48.64 48.64 0 0 1-48.64 48.64H73.216a47.565 47.565 0 0 1-34.304-14.336 48.742 48.742 0 0 1-14.336-34.816v-243.2z" fill="#FF1D1D"/><path d="M121.856 536.576v-97.792l-97.792 97.792zm779.776 0l1.024-97.792 97.28 97.792z" fill="#D30000"/><path d="M901.632 312.833v6.656h-263.68a48.64 48.64 0 0 1-48.64-48.64V0a49.664 49.664 0 0 1 34.816 14.336l264.192 263.68a47.872 47.872 0 0 1 13.312 34.816z" fill="#C1C7D0"/><path d="M276.941 586.292h66.56c41.728 0 76.083 14.745 76.083 61.44 0 45.004-34.867 64.819-74.803 64.819h-22.22v62.873h-45.62zm65.382 90.572c22.119 0 32.768-10.24 32.768-28.979s-12.185-25.6-34.048-25.6H322.56v54.58zm109.363-90.572h54.477c57.703 0 95.898 27.75 95.898 93.593s-38.195 95.693-93.389 95.693h-56.986zm51.661 152.627c30.72 0 52.122-13.978 52.122-59.034s-21.607-57.446-52.122-57.446h-6.093v116.48zm133.837-152.627h120.832v37.631H682.7V665.6h64.819v37.94H682.7v72.243h-45.516z" fill="#FDFEFF"/></svg>