<svg viewBox="0 0 1024 1024" xmlns="http://www.w3.org/2000/svg" width="20" height="20"><path d="M0 686.081a332.799 332.799 0 1 0 665.598 0 332.799 332.799 0 1 0-665.598 0z" fill="#F4EFC9"/><path d="M883.197 1024H243.2a141.056 141.056 0 0 1-140.8-140.8V140.803A141.056 141.056 0 0 1 243.2.003h516.35a89.088 89.088 0 0 1 63.233 25.6l189.695 189.695a38.4 38.4 0 0 1 11.52 27.904V883.2a141.056 141.056 0 0 1-140.8 140.8zM243.2 76.803a64 64 0 0 0-64 64V883.2a64 64 0 0 0 64 64h639.998a64 64 0 0 0 64-64V259.074l-179.2-179.2a12.8 12.8 0 0 0-8.447-3.071z" fill="#434260"/><path d="M366.847 428.802h-66.304v-29.696h168.448v29.696h-66.56v196.095h-35.584zm174.335 79.616l-60.671-109.312h39.68l27.391 52.736c5.632 10.496 10.496 20.48 17.152 34.048h1.536c5.888-13.568 10.24-23.552 15.36-34.048l25.6-52.736h37.376L583.934 510.21l65.024 114.943h-38.656l-29.696-56.064-18.688-36.864c-6.4 13.824-12.032 25.6-17.408 36.864l-28.928 56.064h-39.167zm182.528-79.616h-66.304v-29.696h168.448v29.696h-66.56v196.095H723.71z" fill="#434260"/></svg>