<svg viewBox="0 0 1024 1024" xmlns="http://www.w3.org/2000/svg" width="14" height="14"><path d="M940.62 870.255a21.367 21.367 0 0 0-28.219 3.098c-1.39.964-8.712 5.367-27.819 7.219 3.337-41.643 24.969-153.959 47.429-254.43a21.316 21.316 0 0 0-16.171-25.472 21.257 21.257 0 0 0-24.943 14.575c-13.704-8.047-48.094-24.883-86.605-17.792-29.226 5.401-53.93 22.92-73.43 52.087-13.61 20.352-29.738 48.214-43.673 78.584-27.11-18.347-57.25-37.59-89.685-55.714l-58.052-561.315a21.333 21.333 0 0 0-23.416-19.02c-.05 0-.094.025-.136.025a21.265 21.265 0 0 0-21.666 14.208L326.758 589.841c-42.82.026-86.621 6.776-130.304 23.492-76.646 29.33-113.98 108.664-123.366 173.142-8.567 58.88 4.94 109.918 35.26 133.18 20.625 15.82 39.961 20.71 55.97 20.71a80 80 0 0 0 21.82-3.055c66.628-18.953 106.24-118.963 110.754-130.884l59.759-172.527c61.534 5.623 127.889 27.383 200.772 65.621l22.801 220.425a21.333 21.333 0 1 0 42.428-4.387L602.948 725.06a1248.913 1248.913 0 0 1 60.826 38.733 21.092 21.092 0 0 0 7.526 3.183c-18.824 52.847-25.907 106.931 1.101 138.906 14.421 17.083 35.61 25.634 63.88 25.634 28.434 0 64.137-8.764 107.265-26.078 1.177 5.657 2.995 7.987 4.514 9.881a23.04 23.04 0 0 0 18.03 8.73c56.346 0 74.394-16.828 79.531-24.055a21.3 21.3 0 0 0-5-29.74zm-683.826-78.387c-9.626 25.275-43.196 93.312-82.356 104.405-8.303 2.355-21.478 3.823-40.106-10.47-17.528-13.449-25.174-50.902-19.013-93.193 7.288-50.1 36.907-116.676 96.393-139.435a311.876 311.876 0 0 1 100.224-20.505l-55.142 159.198zM370.987 592.52l135.048-389.897 46.14 446.123c-55.996-27.162-117.316-48.905-181.188-56.226zm334.011 285.84c-24.943-29.533 12.305-131.788 61.338-205.107 12.791-19.131 28.083-30.498 45.44-33.792 30.882-5.82 60.57 14.422 60.86 14.635 2.705 1.894 5.709 3.004 8.772 3.499-22.596 104.055-32.99 165.043-36.975 201.233-102.494 44.612-131.678 28.723-139.435 19.533z" fill="#1d2129"/></svg>