<svg viewBox="0 0 1024 1024" xmlns="http://www.w3.org/2000/svg" width="14" height="14"><path d="M853.1 916.4H167.6c-34.9 0-63.3-28.4-63.3-63.3V167.6c0-34.9 28.4-63.3 63.3-63.3h685.5c34.9 0 63.3 28.4 63.3 63.3v685.5c0 34.9-28.4 63.3-63.3 63.3zm-685.5-772c-12.8 0-23.3 10.4-23.3 23.3v685.5c0 12.8 10.4 23.3 23.3 23.3h685.5c12.8 0 23.3-10.4 23.3-23.3V167.6c0-12.8-10.4-23.3-23.3-23.3H167.6z" fill="#1d2129"/><path d="M545.4 265.6H222.6v70.8H261v-31.7h102.1v432.7h-13.8v38.4h66.8v-38.4h-11.3V304.7h102.4v31.7h38.5v-70.8zm177.9 428.6V355.3l31.9 30.8 27.8-28.7-80-77.5-77 77.8 28.4 28.2 28.9-29.3v336.5l-29-29.3-28.4 28.1 77.2 78.1 79.1-77.5-28.1-28.6z" fill="#1d2129"/></svg>