<svg viewBox="0 0 1024 1024" xmlns="http://www.w3.org/2000/svg" width="14" height="14"><path d="M413 584.1a159.4 159.4 0 1 0 318.8 0 159.4 159.4 0 1 0-318.8 0z" fill="#FF4C4D"/><path d="M223.3 743.5l54.5-145.4h199.7l51.9 145.4h61.9L408.6 231.8l-6.8-19.7-41.5-.6-199.3 532h62.3zM380 325l76.6 214.8h-157L380 325zm489.1 149.2c17 19.2 25.4 45.2 25.4 78v183.6H853v-48.1c-11.4 15.9-26.2 28.8-44.2 38.7-21.8 11.4-45.4 17.1-70.8 17.1-28.8 0-51.6-7.4-68.6-22.1-17.7-15.1-26.6-35.2-26.6-60.3 0-36.5 14.6-63.1 43.7-79.6 23.6-14 55.3-21 95.1-21l68.6-.6v-9.4c0-47.9-24.9-71.9-74.7-71.9-23.2 0-41.3 4.8-54.2 14.4-14.4 10-23.2 24.7-26.5 44.2h-43.7c4.4-32.8 18.4-57.1 42-73 20.6-14.7 49-22.1 85.2-22.1 40.7 0 70.9 10.7 90.8 32.1zm-18.8 120.5l-65.8.6c-64.1 0-96.2 21.8-96.2 65.3 0 14 5.2 25.4 15.5 34.3 10.7 8.5 25.2 12.7 43.7 12.7 28.8 0 53.3-8.9 73.6-26.6 19.5-17.7 29.3-38.2 29.3-61.4v-24.9z"/></svg>