<svg class="icon" viewBox="0 0 1024 1024" xmlns="http://www.w3.org/2000/svg" width="20" height="20"><path d="M525.312 247.936h-1.92a129.664 129.664 0 0 1-12.096 39.04l-57.92 142.4h137.728l-55.872-142.4c-6.72-16.896-9.92-29.888-9.92-39.04z" fill="#fff"/><path d="M849.152 98.432a37.376 37.376 0 0 0-37.248-37.248H211.712a37.376 37.376 0 0 0-37.248 37.248v561.92c0 20.48 12.864 47.872 28.672 60.992l280 231.68a47.424 47.424 0 0 0 57.536.32l279.936-227.072c15.936-12.864 28.864-40.192 28.864-60.672l-.32-567.168zm-193.28 491.712l-40-100.032H429.76l-41.984 100.032h-72L489.792 174.08h66.048l174.016 416.064h-73.984z" fill="#fff"/></svg>