<svg viewBox="0 0 1024 1024" xmlns="http://www.w3.org/2000/svg" width="50" height="50"><path d="M512 595.08m-300.58 0a300.58 300.58 0 1 0 601.16 0 300.58 300.58 0 1 0-601.16 0Z" fill="#E03B5D"></path><path d="M505.36 883.46c-214.4 0-388.82-174.42-388.82-388.82S290.96 105.82 505.36 105.82A388.32 388.32 0 0 1 763.6 204a26 26 0 1 1-34.56 38.86 336.38 336.38 0 0 0-223.68-85c-185.72 0-336.82 151.1-336.82 336.82s151.1 336.82 336.82 336.82a336.76 336.76 0 0 0 279.32-148.52A26 26 0 0 1 827.76 712a388.68 388.68 0 0 1-322.4 171.46z" fill="#333"></path><path d="M760.88 275h-164a26 26 0 0 1 0-52h145.84l-31.54-146.56A26 26 0 0 1 762 65.5l35.36 164.3a37.34 37.34 0 0 1-36.5 45.2z m-14.34-34.26z" fill="#333"></path></svg>