<svg viewBox="0 0 1024 1024" xmlns="http://www.w3.org/2000/svg" width="14" height="14"><path d="M511.3 64.2c-247.4 0-448 200.6-448 448s200.6 448 448 448 448-200.6 448-448c0-247.5-200.5-448-448-448zm0 821.3C305.5 885.5 138 718 138 512.2s167.5-373.3 373.3-373.3 373.3 167.5 373.3 373.3-167.4 373.3-373.3 373.3z" fill="#4e5969"/><path d="M306 456.2c-30.9 0-56 25.1-56 56s25.1 56 56 56 56-25.1 56-56c0-31-25.1-56-56-56zm410.7 0c-30.9 0-56 25.1-56 56s25.1 56 56 56 56-25.1 56-56c0-31-25.1-56-56-56zm-205.4 0c-30.9 0-56 25.1-56 56s25.1 56 56 56 56-25.1 56-56c0-31-25-56-56-56z" fill="#4e5969"/></svg>