<svg viewBox="0 0 1024 1024" xmlns="http://www.w3.org/2000/svg" width="14" height="14"><path d="M192 0h640q192 0 192 192v640q0 192-192 192H192Q0 1024 0 832V192Q0 0 192 0z" fill="#FFF"/><path d="M192 128a64 64 0 0 0-64 64v640a64 64 0 0 0 64 64h640a64 64 0 0 0 64-64V192a64 64 0 0 0-64-64H192m0-128h640a192 192 0 0 1 192 192v640a192 192 0 0 1-192 192H192A192 192 0 0 1 0 832V192A192 192 0 0 1 192 0z" fill="#1693F6"/><path d="M489.343 263.121q45.255 45.255 0 90.51L353.58 489.396q-45.255 45.254-90.51 0-45.255-45.255 0-90.51L398.834 263.12q45.254-45.254 90.51 0zM760.907 534.6120000000001q45.255 45.255 0 90.51L625.143 760.886q-45.255 45.255-90.51 0t0-90.51l135.765-135.764q45.254-45.255 90.51 0zM715.644 308.399q45.255 45.255 0 90.51L398.86 715.691q-45.254 45.255-90.51 0-45.254-45.255 0-90.51L625.136 308.4q45.254-45.255 90.51 0z" fill="#1693F6"/></svg>