<svg viewBox="0 0 1044 1024" xmlns="http://www.w3.org/2000/svg" width="14" height="14"><path d="M172.198 394.377c-77.779 92.035-120.612 221.627-120.612 364.9a23.548 23.548 0 0 0 23.54 23.54H969.86a23.548 23.548 0 0 0 23.54-23.54c0-140.192-46.122-269.904-129.87-365.24-86.589-98.57-207.703-152.858-341.038-152.858-144.467 0-265.598 52.978-350.295 153.198z" fill="#9771FF"/><path d="M523.094 759.277l252.327-438.38s127.817 71.747 170.175 208.026L523.094 759.277" fill="#B786FF"/><path d="M523.094 762.258l-.597-513.94s143.654-20.414 252.928 72.58l-252.331 441.36z" fill="#FF7FED"/><path d="M523.094 762.258l-.597-513.94s-118.41-18.85-259.122 66.896l259.719 447.044z" fill="#FF8282"/><path d="M496.209 777.88L107.657 514.45S51.225 681.11 51.586 759.277l444.623 18.602z" fill="#72E07C"/><path d="M523.094 759.277L266.497 320.172s-121.756 60.035-158.84 194.278l415.437 244.827" fill="#FFB300"/><path d="M966.324 494.505c-25.028-62.696-65.523-110.882-101.367-144.334-32.83-32.826-69.566-60.271-109.349-81.904-41.61-25.488-84.876-39.04-122.743-46.034-35.579-8.006-72.505-12.147-110.372-12.147-153.907 0-283.25 56.784-374.042 164.217-82.513 97.64-127.959 234.36-127.959 384.97 0 30.127 24.51 54.633 54.633 54.633h894.736c30.127 0 54.632-24.506 54.632-54.633 0-94.93-20.206-185.406-58.169-264.768zM724.727 322.357a255.793 255.793 0 0 1 10.177 6.6L554.046 643.17l-.427-365.634a355.58 355.58 0 0 1 65.62 5.419c37.108 8.378 72.492 21.603 105.488 39.4zm115.442 92.201c25.26 28.751 46.851 60.893 64.566 95.643l-173.67 100.273-124.049 67.63 178.84-312.805a424.682 424.682 0 0 1 40.04 33.816 425.337 425.337 0 0 1 14.273 15.443zM491.864 646.612L306.031 326.747c79.98-42.05 149.052-49.01 185.406-49.094l.427 368.96zm-236.432-283.17L433.89 670.615 144.956 500.342c26.661-70.233 79.296-115.206 110.476-136.9zm-141.27 198.373l333.484 189.909H82.72c.746-67.733 11.57-131.951 31.441-189.909zM601.9 751.72l329.325-179.553c19.597 55.802 30.248 116.458 31.031 179.553H601.901z" fill="#6E6E96"/></svg>