<svg viewBox="0 0 1024 1024" xmlns="http://www.w3.org/2000/svg" p-id="17290" width="14" height="14"><path d="M679.787027 0h-61.112361a63.992001 63.992001 0 0 0 0 127.984002h61.112361a63.992001 63.992001 0 1 0 0-127.984002zM374.097238 0H312.920885a63.992001 63.992001 0 0 0 0 127.984002h61.176353a63.992001 63.992001 0 0 0 0-127.984002z m542.460192 31.996a63.992001 63.992001 0 0 0-42.362704 111.986002 64.567929 64.567929 0 0 1 17.405824 24.892889 63.992001 63.992001 0 1 0 119.217098-46.586177 193.319835 193.319835 0 0 0-51.961505-74.230721 63.992001 63.992001 0 0 0-42.298713-16.125985zM86.837145 55.225097a63.992001 63.992001 0 0 0-52.665416 27.452568A191.592051 191.592051 0 0 0 1.5998 167.659043a63.992001 63.992001 0 1 0 126.96013 15.998 62.776153 62.776153 0 0 1 10.750656-27.964505 63.992001 63.992001 0 0 0-52.473441-100.467441zM959.880015 325.079365a63.992001 63.992001 0 0 0-63.992001 63.992001v61.112361a63.992001 63.992001 0 0 0 127.984002 0V389.071366a63.992001 63.992001 0 0 0-63.992001-64.055993zM63.992001 356.179478a63.992001 63.992001 0 0 0-63.992001 63.992001v61.176353a63.992001 63.992001 0 0 0 127.984002 0v-61.176353a63.992001 63.992001 0 0 0-63.992001-64.055993z m895.888014 274.589676a63.992001 63.992001 0 0 0-63.992001 63.992001v61.112361a63.992001 63.992001 0 0 0 127.984002 0v-61.112361a63.992001 63.992001 0 0 0-63.992001-64.055993z m-895.888014 31.100112a63.992001 63.992001 0 0 0-63.992001 63.992001v61.176353a63.992001 63.992001 0 0 0 127.984002 0v-61.496313a63.992001 63.992001 0 0 0-63.992001-63.992001z m800.219973 230.051244a66.103737 66.103737 0 0 0-16.061993 1.983752 63.224097 63.224097 0 0 1-16.253968 2.111736h-28.540432a63.992001 63.992001 0 0 0 0 127.984002H831.896013a194.471691 194.471691 0 0 0 48.249969-6.3992 63.992001 63.992001 0 0 0-15.934008-125.936258z m-305.369829 4.095488h-61.176353a63.992001 63.992001 0 0 0 0 127.984002h61.176353a63.992001 63.992001 0 0 0 0-127.984002z m-305.689789 0H191.976003a64.631921 64.631921 0 0 0-64.759905 63.992001 63.352081 63.352081 0 0 0 63.288089 63.992001h62.648169a63.992001 63.992001 0 0 0 0-127.984002z" fill="#1693F6"></path></svg>