<svg viewBox="0 0 1027 1024" xmlns="http://www.w3.org/2000/svg" width="14" height="14"><path d="M28.27 536.64c-13.3 0-24.8-11.23-24.8-24.8 0-13.25 11.5-24.19 24.8-24.19h124.5c5.8-90.55 45-172.43 105.24-232.96 60.83-60.56 142.73-99.76 233.23-105.51V24.63c0-13.25 10.67-24.51 24.21-24.51 13.28 0 24.8 11.26 24.8 24.51v124.55c90.55 5.75 172.4 44.95 232.96 105.51l1.73 2.02c59.07 60.54 98 141.56 103.78 230.94h124.56c13.25 0 24.19 10.94 24.19 24.19 0 13.57-10.94 24.8-24.19 24.8H878.73c-5.77 90.52-45.55 172.4-105.51 232.67-60.56 60.53-142.41 100.05-232.96 105.8v124.56c0 13.25-11.52 24.21-24.8 24.21-13.54 0-24.21-10.97-24.21-24.21V875.11c-90.5-5.75-172.4-45.27-233.23-105.8l-1.44-2.32c-59.69-60.24-98-140.98-103.8-230.36H28.27v.01zm205.82-48.99h122.24c13.54 0 24.21 10.94 24.21 24.19 0 13.57-10.67 24.8-24.21 24.8H234.09c5.48 66.9 35.18 128.02 79.85 173.57l1.73 1.73c45.85 45.55 106.97 75.81 175.57 81.88V671.28c0-13.54 10.67-24.51 24.21-24.51 13.28 0 24.8 10.97 24.8 24.51v122.54c68.04-6.07 129.16-36.32 175.3-81.88 46.11-46.14 75.81-107.23 81.85-175.3H674.6c-13.25 0-24.21-11.23-24.21-24.8 0-13.25 10.96-24.19 24.21-24.19h122.8c-5.75-67.48-35.15-128.3-80.15-174.15l-1.7-1.41c-46.14-45.85-107.26-75.86-175.3-82.2v122.83c0 13.57-11.52 24.77-24.8 24.77-13.54 0-24.21-11.2-24.21-24.77V229.89c-68.6 6.33-129.72 36.35-175.57 82.2h-.29c-45.55 45.79-75.8 106.94-81.29 175.56z" fill="#1d2129"/></svg>