<svg viewBox="0 0 1024 1024" xmlns="http://www.w3.org/2000/svg" width="14" height="14"><path d="M768 128H256a128 128 0 0 0-128 128v512a128 128 0 0 0 128 128h512a128 128 0 0 0 128-128V256a128 128 0 0 0-128-128zm76.8 640a76.8 76.8 0 0 1-76.8 76.8H256a76.8 76.8 0 0 1-76.8-76.8V256a76.8 76.8 0 0 1 76.8-76.8h512a76.8 76.8 0 0 1 76.8 76.8z" fill="#4e5969"/><path d="M716.8 321.536H307.2a25.6 25.6 0 0 0 0 51.2h409.6a25.6 25.6 0 0 0 0-51.2zM307.2 541.184H512a25.6 25.6 0 0 0 0-51.2H307.2a25.6 25.6 0 0 0 0 51.2zm409.6 117.248H307.2a25.6 25.6 0 1 0 0 51.2h409.6a25.6 25.6 0 0 0 0-51.2z" fill="#4e5969"/></svg>