<svg class="icon" viewBox="0 0 1024 1024" xmlns="http://www.w3.org/2000/svg" width="14" height="14" style="vertical-align:middle"><path d="M844.8 921.6H469.35a51.2 51.2 0 0 1-50.688-43.878 8.5 8.5 0 0 0-8.448-7.322H264.55a68.25 68.25 0 0 1-68.3-68.25v-665.6a34.15 34.15 0 0 1 68.3 0V307.2c0 9.42 7.63 17.05 17.05 17.05h128.614c4.25 0 7.834-3.072 8.448-7.27a51.2 51.2 0 0 1 50.688-43.93H844.8a51.2 51.2 0 0 1 51.2 51.2v68.3a51.2 51.2 0 0 1-51.2 51.2H469.35a51.2 51.2 0 0 1-50.688-43.93 8.5 8.5 0 0 0-8.448-7.27H281.6a17.05 17.05 0 0 0-17.05 17.05v136.55c0 9.421 7.63 17.05 17.05 17.05h128.614a8.498 8.498 0 0 0 8.448-7.322A51.2 51.2 0 0 1 469.35 512H844.8a51.2 51.2 0 0 1 51.2 51.2v68.25a51.2 51.2 0 0 1-51.2 51.2H469.35a51.2 51.2 0 0 1-50.688-43.879 8.5 8.5 0 0 0-8.448-7.321H281.6a17.05 17.05 0 0 0-17.05 17.1v136.5c0 9.42 7.63 17.1 17.05 17.1h128.614c4.25 0 7.834-3.123 8.448-7.321a51.2 51.2 0 0 1 50.688-43.879H844.8a51.2 51.2 0 0 1 51.2 51.2v68.25a51.2 51.2 0 0 1-51.2 51.2z" fill="#4e5969"/></svg>