<svg viewBox="0 0 1024 1024" xmlns="http://www.w3.org/2000/svg" width="20" height="20"><path d="M784.18 105.728H239.922c-73.062 0-132.505 59.443-132.505 132.506V782.54c0 73.062 59.443 132.505 132.505 132.505H784.23c73.063 0 132.506-59.443 132.506-132.505V238.234c-.051-73.063-59.494-132.506-132.557-132.506zm71.065 676.813c0 39.168-31.898 71.065-71.066 71.065H239.923c-39.168 0-71.065-31.897-71.065-71.065V238.234c0-39.168 31.897-71.066 71.065-71.066H784.23c39.168 0 71.066 31.898 71.066 71.066V782.54z" fill="#57576D"/><path d="M678.656 249.702H453.939c-16.947 0-30.72 13.773-30.72 30.72s13.773 30.72 30.72 30.72h224.666c9.062 0 16.691 9.933 16.691 21.658v380.928c0 6.298-5.12 11.418-11.418 11.418h-24.012c-16.948 0-30.72 13.772-30.72 30.72s13.772 30.72 30.72 30.72h24.012c40.141 0 72.858-32.666 72.858-72.858V332.8c.051-45.875-35.02-83.098-78.08-83.098z" fill="#ff5b5c"/><path d="M473.344 440.934h140.544c16.947 0 30.72-13.772 30.72-30.72s-13.773-30.72-30.72-30.72H473.344c-16.947 0-30.72 13.773-30.72 30.72s13.773 30.72 30.72 30.72zm170.957 220.877V505.754c0-16.948-13.773-30.72-30.72-30.72H479.283c-16.947 0-30.72 13.772-30.72 30.72V661.81c0 16.947 13.773 30.72 30.72 30.72h134.298c16.998 0 30.72-13.773 30.72-30.72zm-61.44-30.72h-72.858v-94.617h72.858v94.617zM290.816 340.838a30.618 30.618 0 0 0 22.323 9.626c7.578 0 15.155-2.765 21.095-8.397a30.684 30.684 0 0 0 1.228-43.417l-32.05-33.946a30.684 30.684 0 0 0-43.418-1.229 30.684 30.684 0 0 0-1.23 43.418l32.052 33.945zm84.275 320.256l-22.323 12.135 34.867-256.615c1.178-8.806-1.485-17.664-7.321-24.32s-14.285-10.496-23.143-10.496h-83.968c-16.947 0-30.72 13.773-30.72 30.72s13.773 30.72 30.72 30.72h48.845L283.75 724.992c-1.536 11.469 3.43 22.835 12.954 29.44 5.222 3.635 11.315 5.427 17.46 5.427 5.017 0 10.034-1.229 14.642-3.686l75.572-40.96c14.899-8.09 20.48-26.727 12.39-41.626s-26.726-20.531-41.677-12.493z" fill="#ff5b5c"/></svg>