<svg viewBox="0 0 1024 1024" xmlns="http://www.w3.org/2000/svg" width="14" height="14"><path d="M523.735 319.293h-204.8c-16.896 0-30.72-13.824-30.72-30.72s13.824-30.72 30.72-30.72h204.8c16.896 0 30.72 13.824 30.72 30.72s-13.824 30.72-30.72 30.72zm81.92 133.12h-286.72c-16.896 0-30.72-13.824-30.72-30.72s13.824-30.72 30.72-30.72h286.72c16.896 0 30.72 13.824 30.72 30.72s-13.824 30.72-30.72 30.72z" fill="#FFF"/><path d="M511.57 176.732c-244.613 0-335.145 214.026-335.145 334.05s87.01 336.23 328.018 336.23c0 0 59.904 1.044 59.904-52.992 0-54.047-26.942-36.782-26.942-75.664a51.528 51.528 0 0 1 39.885-56.217 445.623 445.623 0 0 0 145.49-11.94 194.212 194.212 0 0 0 123.914-176.036c-15.421-172.185-162.324-302.55-335.124-297.43zM307.26 511.877a58.409 58.409 0 1 1 58.184-58.388 58.286 58.286 0 0 1-58.184 58.388zm109.753-144.486a58.399 58.399 0 1 1 58.194-58.389 58.296 58.296 0 0 1-58.184 58.44v-.051zm186.634 0a58.409 58.409 0 1 1 58.184-58.389 58.307 58.307 0 0 1-58.102 58.44l-.082-.051zm110.807 144.486a58.409 58.409 0 1 1 58.184-58.388 58.317 58.317 0 0 1-58.184 58.388zm0 0" fill="#3889FF"/></svg>