<svg class="icon" viewBox="0 0 1024 1024" xmlns="http://www.w3.org/2000/svg" width="50" height="50"><path d="M258.617 607.981v65.695a224.55 224.55 0 0 0 152.392-47.384l7.539-6.463a423.594 423.594 0 0 1-33.926-59.771 146.997 146.997 0 0 1-126.005 47.923m382.86-257.389a224.55 224.55 0 0 0-152.391 47.385l-7.539 6.462a424.916 424.916 0 0 1 32.312 59.771 146.994 146.994 0 0 1 125.999-47.922v191.694c-107.693 0-131.923-48.461-161.54-107.693a290.206 290.206 0 0 0-67.31-100.155 224.554 224.554 0 0 0-152.392-49.541v65.695c107.697 0 131.929 48.461 161.545 107.693a290.224 290.224 0 0 0 67.847 97.464A224.575 224.575 0 0 0 640.4 668.834v95.846l127.62-127.62-126.543-124.923 127.619-127.619-127.619-127.623v93.697zM129.359 127.623h766.815v64.161H129.359zm0 64.161h62.678V895.64h-62.678zm62.678 639.937h704.137v63.919H192.037z" fill="#3491fa"/><path d="M832.162 127.99h64.012v703.731h-64.012z" fill="#3491fa"/></svg>