<svg class="icon" viewBox="0 0 1024 1024" xmlns="http://www.w3.org/2000/svg" width="14" height="14" style="vertical-align:middle"><path d="M172.76 924.37V816.8c0-19.8 16.05-35.86 35.86-35.86 19.8 0 35.86 16.05 35.86 35.86v107.57c0 19.8-16.05 35.86-35.86 35.86-19.81-.01-35.86-16.06-35.86-35.86zm0-322.7V494.1c0-19.8 16.05-35.86 35.86-35.86 19.8 0 35.86 16.05 35.86 35.86v107.57c0 19.8-16.05 35.86-35.86 35.86-19.81-.01-35.86-16.06-35.86-35.86zm0-394.41V99.69c0-19.8 16.05-35.86 35.86-35.86 19.8 0 35.86 16.05 35.86 35.86v107.57c0 19.8-16.05 35.86-35.86 35.86-19.81-.01-35.86-16.06-35.86-35.86z" fill="#4e5969"/><path d="M352.04 350.68c0 79.21-64.21 143.42-143.42 143.42S65.19 429.89 65.19 350.68s64.21-143.42 143.42-143.42 143.43 64.21 143.43 143.42zm-143.42-71.71c-39.6 0-71.71 32.11-71.71 71.71s32.11 71.71 71.71 71.71 71.71-32.11 71.71-71.71-32.11-71.71-71.71-71.71zm143.42 430.26c0 79.21-64.21 143.42-143.42 143.42S65.19 788.44 65.19 709.23s64.21-143.42 143.42-143.42 143.43 64.21 143.43 143.42zm-143.42-71.71c-39.6 0-71.71 32.11-71.71 71.71 0 39.61 32.11 71.71 71.71 71.71s71.71-32.11 71.71-71.71c0-39.6-32.11-71.71-71.71-71.71zm717.11-286.84H423.75c-19.8 0-35.86-16.05-35.86-35.86 0-19.8 16.05-35.86 35.86-35.86h501.98c19.8 0 35.86 16.05 35.86 35.86-.01 19.81-16.06 35.86-35.86 35.86zm-284.8 107.56H421.7c-18.67 0-33.8-15.13-33.8-33.8v-4.1c0-18.67 15.14-33.8 33.8-33.8h219.23c18.67 0 33.8 15.13 33.8 33.8v4.1c.01 18.67-15.13 33.8-33.8 33.8zm284.8 250.99H423.75c-19.8 0-35.86-16.05-35.86-35.86 0-19.8 16.05-35.86 35.86-35.86h501.98c19.8 0 35.86 16.05 35.86 35.86-.01 19.81-16.06 35.86-35.86 35.86zM640.93 816.8H421.7c-18.67 0-33.8-15.13-33.8-33.8v-4.1c0-18.67 15.14-33.8 33.8-33.8h219.23c18.67 0 33.8 15.14 33.8 33.8v4.1c.01 18.67-15.13 33.8-33.8 33.8z" fill="#4e5969"/></svg>