<svg class="icon" viewBox="0 0 1024 1024" xmlns="http://www.w3.org/2000/svg" width="50" height="50"><path d="M320.512 319.488H92.672c-17.92 0-32.256 14.336-32.256 32.256v383.488c0 17.92 14.336 31.744 31.744 31.744h98.304V620.032c0-11.264 8.192-21.504 19.456-22.528 12.8-1.024 24.064 8.704 24.064 21.504v147.456h86.528c8.704 0 15.36-6.656 15.36-15.36V334.848c0-8.192-6.656-15.36-15.36-15.36zm606.72 0H508.416c-8.704 0-15.36 6.656-15.36 15.36v416.768c0 8.704 6.656 15.36 15.36 15.36h90.112V620.032c0-11.264 8.192-21.504 19.456-22.528 12.8-1.024 24.064 8.704 24.064 21.504v147.456h115.2V619.52c0-11.264 8.192-21.504 19.456-22.528 12.8-1.024 24.064 8.704 24.064 21.504v147.456h126.976c17.92 0 31.744-14.336 31.744-31.744V351.744c0-17.92-14.336-32.256-32.256-32.256zM463.36 66.56h-97.28c-11.776 0-16.896 4.608-16.896 16.896v174.08c0 11.776 4.608 16.896 16.896 16.896h27.136v641.536c0 11.776 9.728 22.016 22.016 22.016s22.016-9.728 22.016-22.016V273.92h27.136c11.776 0 16.896-4.608 16.896-16.896V82.944c-1.024-11.776-6.144-16.384-17.92-16.384z" fill="#3491fa"/></svg>