<svg class="icon" viewBox="0 0 1024 1024" xmlns="http://www.w3.org/2000/svg" width="50" height="50"><path d="M245.33300000000003 266.667a32 32 0 1 0 64 0 32 32 0 1 0-64 0zM416 266.667a32 32 0 1 0 64 0 32 32 0 1 0-64 0zM309.333 181.333a32 32 0 1 0 64 0 32 32 0 1 0-64 0zM437.333 160a32 32 0 1 0 64 0 32 32 0 1 0-64 0zM490.66700000000003 74.667a32 32 0 1 0 64 0 32 32 0 1 0-64 0zM544 181.333a32 32 0 1 0 64 0 32 32 0 1 0-64 0zM586.667 266.667a32 32 0 1 0 64 0 32 32 0 1 0-64 0zM714.667 245.333a32 32 0 1 0 64 0 32 32 0 1 0-64 0zM629.333 117.333a32 32 0 1 0 64 0 32 32 0 1 0-64 0zM722.688 341.333H301.312c-52.053 0-92.715 43.584-87.53 93.824l48.383 469.334c4.502 43.626 42.326 76.842 87.531 76.842h324.608c45.205 0 83.03-33.216 87.53-76.842l48.385-469.334c5.184-50.24-35.478-93.824-87.531-93.824zM426.667 832a32 32 0 0 1-64 0V490.667a32 32 0 0 1 64 0V832zM544 832a32 32 0 0 1-64 0V490.667a32 32 0 0 1 64 0V832zm117.333 0a32 32 0 0 1-64 0V490.667a32 32 0 0 1 64 0V832z" fill="#a9aeb8"/></svg>