<svg viewBox="0 0 1567 1024" xmlns="http://www.w3.org/2000/svg" width="50" height="50"><path d="M156.662 699.758h21.097a10.444 10.444 0 0 1 10.236 10.444c0 5.765-4.491 10.444-10.236 10.444h-21.097v21.098a10.444 10.444 0 0 1-10.444 10.235 10.277 10.277 0 0 1-10.444-10.235v-21.098h-21.097a10.444 10.444 0 0 1-10.235-10.444c0-5.765 4.49-10.444 10.235-10.444h21.097v-21.097a10.444 10.444 0 0 1 10.444-10.235c5.765 0 10.444 4.49 10.444 10.235v21.097zm1378.628-83.553v-21.097a10.277 10.277 0 0 0-10.444-10.235 10.444 10.444 0 0 0-10.444 10.235v21.097h-21.097a10.277 10.277 0 0 0-10.235 10.444c0 5.598 4.595 10.444 10.235 10.444h21.097v21.097c0 5.745 4.679 10.236 10.444 10.236a10.444 10.444 0 0 0 10.444-10.236v-21.097h21.098c5.744 0 10.235-4.679 10.235-10.444a10.444 10.444 0 0 0-10.235-10.444h-21.098zM776.46 960.862H250.597a20.805 20.805 0 0 1-20.826-20.888c0-11.53 9.463-20.889 20.826-20.889h94.728a83.01 83.01 0 0 1-11.112-41.672v-605.97a83.49 83.49 0 0 1 83.637-83.448h62.581v-20.993a83.49 83.49 0 0 1 83.637-83.449h501.152a83.449 83.449 0 0 1 83.637 83.449v605.97c0 15.185-4.053 29.41-11.134 41.672h115.554c11.552 0 20.91 9.274 20.91 20.888 0 11.53-9.296 20.888-20.889 20.888h-250.66v20.993c0 15.186-4.052 29.41-11.133 41.672h11.196c11.489 0 20.826 9.275 20.826 20.889 0 11.53-9.463 20.888-20.826 20.888H892.808a41.658 41.658 0 0 1-6.413 50.863 41.672 41.672 0 0 1-59.072 0l-50.863-50.863zm76.368-41.777h66.424c22.978 0 41.61-18.59 41.61-41.88V270.461c0-22.56-18.048-40.69-40.314-40.69H416.304c-22.267 0-40.315 18.214-40.315 40.69v606.742c0 23.124 18.8 41.881 41.59 41.881h317.084l-10.737-10.757a41.693 41.693 0 0 1-10.862-40.377l-19.719-19.74a146.26 146.26 0 0 1-190.981-220.517 146.218 146.218 0 0 1 220.518 190.981l19.739 19.74a41.63 41.63 0 0 1 40.377 10.84l69.83 69.83zm149.81-104.441h62.853a41.797 41.797 0 0 0 41.59-41.777v-605.76c0-23.145-18.633-41.777-41.59-41.777H563.775a41.797 41.797 0 0 0-41.567 41.776v20.889h396.794a83.449 83.449 0 0 1 83.637 83.449v543.2zM266.327 46.999h31.123c8.774 0 15.876 6.955 15.876 15.666 0 8.648-7.102 15.666-15.876 15.666h-31.123v31.124c0 8.773-6.956 15.875-15.666 15.875a15.77 15.77 0 0 1-15.667-15.875V78.33H203.87a15.729 15.729 0 0 1-15.875-15.666c0-8.648 7.102-15.666 15.875-15.666h31.123V15.875C234.993 7.102 241.95 0 250.66 0c8.647 0 15.666 7.102 15.666 15.875V47zM20.888 939.974c0-11.53 9.463-20.889 20.826-20.889h125.455c11.489 0 20.826 9.275 20.826 20.889 0 11.53-9.463 20.888-20.826 20.888H41.714a20.805 20.805 0 0 1-20.826-20.888zm658.734-135.022A104.442 104.442 0 1 0 531.9 657.23a104.442 104.442 0 0 0 147.722 147.722zm-220.08-491.627a20.888 20.888 0 0 1 20.868-20.889h229.792a20.888 20.888 0 1 1 0 41.777H480.431a20.826 20.826 0 0 1-20.888-20.888zm0 104.441c0-11.53 9.296-20.888 20.743-20.888H814.79c11.447 0 20.742 9.274 20.742 20.888 0 11.53-9.295 20.888-20.742 20.888H480.285a20.763 20.763 0 0 1-20.742-20.888zm0 104.442c0-11.53 9.317-20.889 20.847-20.889h146.302c11.51 0 20.846 9.275 20.846 20.889 0 11.53-9.316 20.888-20.846 20.888H480.389a20.805 20.805 0 0 1-20.846-20.888zM62.666 396.878a62.665 62.665 0 1 1 0-125.33 62.665 62.665 0 0 1 0 125.33zm0-31.333a31.332 31.332 0 1 0 0-62.665 31.332 31.332 0 0 0 0 62.665zm1295.075-93.997a62.665 62.665 0 1 1 0-125.33 62.665 62.665 0 0 1 0 125.33zm0-31.333a31.332 31.332 0 1 0 0-62.664 31.332 31.332 0 0 0 0 62.664z" fill="#333"/></svg>