<svg viewBox="0 0 1024 1024" xmlns="http://www.w3.org/2000/svg" width="14" height="14"><path d="M830 99H194c-53.02 0-96 42.98-96 96v634c0 53.02 42.98 96 96 96h636c53.02 0 96-42.98 96-96V195c0-53.02-42.98-96-96-96zm-636 64h636c17.673 0 32 14.327 32 32v634c0 17.673-14.327 32-32 32H194c-17.673 0-32-14.327-32-32V195c0-17.673 14.327-32 32-32z" fill="#4e5969"/><path d="M671.783 328c26.861 0 48.775 21.497 49.21 48.287l.007.813V417h-64v-25H544.5v272.756l49.95.156-.199 64-164.35-.512.199-64 50.4.157V392H369v25h-64v-39.9c0-26.895 21.645-48.66 48.405-49.093l.812-.007h317.566z" fill="#4e5969"/></svg>